<svg width="121" height="114" viewBox="0 0 121 114" fill="none" xmlns="http://www.w3.org/2000/svg">
<rect x="0.881424" y="4.30322" width="86.3805" height="108.441" fill="white"/>
<path d="M26.9586 77.8232H62.1219" stroke="#485F7D"/>
<path d="M26.9586 88.1235H62.1219" stroke="#485F7D"/>
<path d="M26.9586 58.3674H62.1219" stroke="#485F7D"/>
<path d="M26.9586 67.5234H62.1219" stroke="#485F7D"/>
<path d="M26.9586 48.0674H62.1219" stroke="#485F7D"/>
<path d="M66.8103 31.2162H78.3709L90.654 63.1822L108.717 14.8781H119.555L94.9892 76.6789H84.8737L66.8103 31.2162Z" fill="#485F7D" stroke="#485F7D"/>
<path d="M26.9586 35.4783H62.1219" stroke="#485F7D" stroke-width="3"/>
<path d="M1.03422 4.57781H86.8741V37.1949H87.9083V3.43335H0V113.302H87.9083V78.9677H86.8741V112.157H1.03422V4.57781Z" fill="#485F7D"/>
<rect x="19.2538" y="0.5" width="49.4007" height="5.86676" rx="0.5" fill="#485F7D" stroke="#485F7D"/>
<path d="M22.2702 4.57788H16.4096V10.3002H72.0849V4.57788H66.8104" stroke="#485F7D" stroke-width="3"/>
<rect x="10.8769" y="42.7006" width="6.37688" height="6.15568" stroke="#485F7D" stroke-width="3"/>
<rect x="10.8769" y="55.2896" width="6.37688" height="6.15568" stroke="#485F7D" stroke-width="3"/>
<rect x="10.8769" y="67.8787" width="6.37688" height="6.15568" stroke="#485F7D" stroke-width="3"/>
<rect x="10.8769" y="80.4678" width="6.37688" height="6.15568" stroke="#485F7D" stroke-width="3"/>
</svg>
