<svg width="91" height="124" viewBox="0 0 91 124" fill="none" xmlns="http://www.w3.org/2000/svg">
<path d="M2 46.3117C2 12.2885 28.941 2.382 43.4968 2C75.6729 2 88.4411 22.3732 89.2072 43.383C89.2072 70.1229 67.6288 80.8188 66.0967 91.3874H23.1953C14.3852 68.7222 2.89378 73.4335 2 46.3117Z" fill="white" stroke="#485F7D" stroke-width="3"/>
<rect x="20.4414" y="92.3872" width="48.1441" height="8.9009" rx="4.45045" stroke="#485F7D" stroke-width="2"/>
<rect x="20.4414" y="101.108" width="48.1441" height="7.81081" rx="3.90541" stroke="#485F7D" stroke-width="2"/>
<rect x="20.4414" y="108.738" width="48.1441" height="8.9009" rx="4.45045" stroke="#485F7D" stroke-width="2"/>
<path d="M60.8649 118.13C60.8649 120.819 58.8473 123 56.3586 123H32.6684C30.1797 123 28.1622 120.819 28.1622 118.13V116.46" stroke="#485F7D" stroke-width="2"/>
<path d="M45.6036 61.1117C43.9833 61.1117 43.1732 60.172 43.1732 58.2926L42.7443 23.4991C42.7443 22.5594 43.0064 21.8422 43.5306 21.3477C44.0548 20.8036 44.7458 20.5316 45.6036 20.5316C46.4614 20.5316 47.1523 20.8036 47.6765 21.3477C48.2484 21.8917 48.5343 22.6088 48.5343 23.4991L48.0339 58.2926C48.0339 60.172 47.2238 61.1117 45.6036 61.1117ZM45.6036 73.946C44.3169 73.946 43.2685 73.5751 42.4584 72.8332C41.6483 72.0419 41.2432 71.0527 41.2432 69.8658C41.2432 68.6293 41.6483 67.6154 42.4584 66.8241C43.3162 65.9833 44.3646 65.5629 45.6036 65.5629C46.8426 65.5629 47.8672 65.9833 48.6773 66.8241C49.5351 67.6154 49.9639 68.6293 49.9639 69.8658C49.9639 71.0527 49.5589 72.0419 48.7488 72.8332C47.9386 73.5751 46.8902 73.946 45.6036 73.946Z" fill="#485F7D"/>
<path d="M70.6757 17.8062C80.4865 23.8016 81.0315 36.3377 81.0315 41.7881" stroke="#485F7D" stroke-width="2" stroke-linecap="round"/>
<path d="M29.7973 85.937H43.9685" stroke="#485F7D" stroke-width="2" stroke-linecap="round"/>
</svg>
