<svg width="45" height="45" viewBox="0 0 45 45" fill="none" xmlns="http://www.w3.org/2000/svg">
<g clip-path="url(#clip0_214_26)">
<path fill-rule="evenodd" clip-rule="evenodd" d="M44.9696 22.4848C44.9696 34.9028 34.9026 44.9695 22.4846 44.9695C10.0668 44.9695 0 34.9028 0 22.4848C0 10.0668 10.0668 0 22.4846 0C34.9026 0 44.9696 10.0668 44.9696 22.4848Z" fill="#485F7D"/>
<path fill-rule="evenodd" clip-rule="evenodd" d="M15.9396 10.6288H29.0296C31.9766 10.6288 34.3746 13.0273 34.3746 15.9742V28.9951C34.3746 31.942 31.9766 34.3406 29.0296 34.3406H15.9396C12.9936 34.3406 10.5946 31.942 10.5946 28.9951V15.9742C10.5946 13.0273 12.9936 10.6288 15.9396 10.6288ZM22.4506 17.3448H22.5186C25.3286 17.3448 27.6586 19.6749 27.6586 22.4847C27.6586 25.363 25.3286 27.693 22.5186 27.693H22.4506C19.6406 27.693 17.3106 25.363 17.3106 22.4847C17.3106 19.6749 19.6406 17.3448 22.4506 17.3448ZM22.4506 14.6721H22.5186C26.7676 14.6721 30.3316 18.2357 30.3316 22.4847C30.3316 26.8021 26.7676 30.2972 22.5186 30.2972H22.4506C18.2016 30.2972 14.7066 26.8021 14.7066 22.4847C14.7066 18.2357 18.2016 14.6721 22.4506 14.6721ZM30.1946 13.1644C31.0856 13.1644 31.8396 13.9183 31.8396 14.8092C31.8396 15.7001 31.0856 16.4539 30.1946 16.4539C29.2356 16.4539 28.5496 15.7001 28.5496 14.8092C28.5496 13.9183 29.2356 13.1644 30.1946 13.1644ZM15.8716 8.16162H29.0976C33.3466 8.16162 36.8416 11.6567 36.8416 15.9057V29.0636C36.8416 33.3126 33.3466 36.8077 29.0976 36.8077H15.8716C11.6226 36.8077 8.1275 33.3126 8.1275 29.0636V15.9057C8.1275 11.6567 11.6226 8.16162 15.8716 8.16162Z" fill="white"/>
</g>
<defs>
<clipPath id="clip0_214_26">
<rect width="45" height="45" fill="white"/>
</clipPath>
</defs>
</svg>
