<svg width="45" height="45" viewBox="0 0 45 45" fill="none" xmlns="http://www.w3.org/2000/svg">
<path fill-rule="evenodd" clip-rule="evenodd" d="M44.5351 22.4849C44.5351 34.9029 34.5655 44.9699 22.2676 44.9699C9.96966 44.9699 0 34.9029 0 22.4849C0 10.0667 9.96966 0 22.2676 0C34.5655 0 44.5351 10.0667 44.5351 22.4849Z" fill="#485F7D"/>
<path fill-rule="evenodd" clip-rule="evenodd" d="M17.8695 17.9716H22.8222V20.3471C23.8749 18.7843 25.608 17.784 27.5896 17.784H28.9513C32.1085 17.784 34.6467 20.4096 34.6467 23.5351V34.9751H29.6941V25.7861C29.6327 23.8481 28.3324 22.3471 26.4131 22.3471C24.4939 22.3471 22.8846 23.8481 22.8222 25.7861V34.9751H17.8695V17.9716ZM12.3594 9.34473C14.031 9.34473 15.3927 10.72 15.3927 12.4079C15.3927 14.0958 14.031 15.471 12.3594 15.471C10.6877 15.471 9.38837 14.0958 9.38837 12.4079C9.38837 10.72 10.6877 9.34473 12.3594 9.34473ZM9.88353 17.9716H14.8976V34.9751H9.88353V17.9716Z" fill="white"/>
</svg>
