<svg width="116" height="72" viewBox="0 0 116 72" fill="none" xmlns="http://www.w3.org/2000/svg">
<path fill-rule="evenodd" clip-rule="evenodd" d="M26.4036 11.869L0.984441 11.2061L0.633362 65.1166L54.074 64.8417L53.5355 38.2303L52.8701 63.5647L2.58567 62.9982L2.13257 12.514L26.4036 11.869Z" fill="#0A2B52"/>
<path fill-rule="evenodd" clip-rule="evenodd" d="M53.035 19.9858H83.7655V27.5253H72.583V57.1238H64.2993V27.542L53.0208 27.5622L53.035 19.9858Z" fill="#0A2B52"/>
<path fill-rule="evenodd" clip-rule="evenodd" d="M0.0616792 69.3696L115.085 70.6633L0 71.932L0.0616792 69.3696Z" fill="#0A2B52"/>
<path fill-rule="evenodd" clip-rule="evenodd" d="M110.588 30.2984L114.8 24.2966C114.8 24.2966 109.288 19.3623 101.524 19.3623C93.7607 19.3623 89.9771 23.8158 88.7673 26.9565C87.6607 29.8283 87.0071 34.9685 91.7752 38.5555C96.0404 41.7641 99.8573 41.8974 102.161 42.558C103.942 43.0685 107.942 44.0587 107.916 46.971C107.887 50.2986 102.779 50.4795 101.786 50.3962C95.6395 49.8796 91.5665 45.9034 91.5712 45.9034C91.576 45.9034 86.5944 51.8267 86.5944 51.8267C86.5944 51.8267 93.0799 57.318 100.264 57.5679C107.447 57.819 112.059 56.0243 114.823 51.4244C118.955 40.7775 110.461 37.0691 110.461 37.0691C110.461 37.0691 108.971 36.1491 104.483 34.8543C99.9937 33.5606 95.6775 33.1607 96.2409 29.5998C96.86 25.6867 102.094 26.5364 103.909 27.0494C107.235 27.9896 110.588 30.2984 110.588 30.2984Z" fill="#0A2B52"/>
<path fill-rule="evenodd" clip-rule="evenodd" d="M19.465 19.9811L10.5717 20.0144L25.5319 57.4214L32.7374 57.3798L55.3147 0.0261939L46.534 0L29.2123 46.1461L19.465 19.9811Z" fill="#0A2B52"/>
</svg>
