<?xml version="1.0" encoding="UTF-8" standalone="no"?>
<!DOCTYPE svg PUBLIC "-//W3C//DTD SVG 1.1//EN" "http://www.w3.org/Graphics/SVG/1.1/DTD/svg11.dtd">
<svg width="100%" height="100%" viewBox="0 0 116 72" version="1.1" xmlns="http://www.w3.org/2000/svg" xmlns:xlink="http://www.w3.org/1999/xlink" xml:space="preserve" xmlns:serif="http://www.serif.com/" style="fill-rule:evenodd;clip-rule:evenodd;stroke-linejoin:round;stroke-miterlimit:2;">
    <path d="M26.404,11.869L0.984,11.206L0.633,65.117L54.074,64.842L53.536,38.23L52.87,63.565L2.586,62.998L2.133,12.514L26.404,11.869Z" style="fill:white;"/>
    <path d="M53.035,19.986L83.766,19.986L83.766,27.525L72.583,27.525L72.583,57.124L64.299,57.124L64.299,27.542L53.021,27.562L53.035,19.986Z" style="fill:white;"/>
    <path d="M0.062,69.37L115.085,70.663L0,71.932L0.062,69.37Z" style="fill:white;"/>
    <path d="M110.588,30.298L114.8,24.297C114.8,24.297 109.288,19.362 101.524,19.362C93.761,19.362 89.977,23.816 88.767,26.956C87.661,29.828 87.007,34.969 91.775,38.556C96.04,41.764 99.857,41.897 102.161,42.558C103.942,43.069 107.942,44.059 107.916,46.971C107.887,50.299 102.779,50.48 101.786,50.396C95.64,49.88 91.567,45.903 91.571,45.903C91.576,45.903 86.594,51.827 86.594,51.827C86.594,51.827 93.08,57.318 100.264,57.568C107.447,57.819 112.059,56.024 114.823,51.424C118.955,40.778 110.461,37.069 110.461,37.069C110.461,37.069 108.971,36.149 104.483,34.854C99.994,33.561 95.678,33.161 96.241,29.6C96.86,25.687 102.094,26.536 103.909,27.049C107.235,27.99 110.588,30.298 110.588,30.298Z" style="fill:white;"/>
    <path d="M19.465,19.981L10.572,20.014L25.532,57.421L32.737,57.38L55.315,0.026L46.534,0L29.212,46.146L19.465,19.981Z" style="fill:white;"/>
</svg>
