<svg width="299" height="186" viewBox="0 0 299 186" fill="none" xmlns="http://www.w3.org/2000/svg">
<path fill-rule="evenodd" clip-rule="evenodd" d="M68.0576 30.5412L2.53751 28.8354L1.63257 167.556L139.38 166.849L137.992 98.3736L136.277 163.563L6.66481 162.105L5.49691 32.201L68.0576 30.5412Z" fill="#1E68C0"/>
<path fill-rule="evenodd" clip-rule="evenodd" d="M136.702 51.4272H215.913V70.8276H187.089V146.99H165.737V70.8705L136.666 70.9225L136.702 51.4272Z" fill="#1E68C0"/>
<path fill-rule="evenodd" clip-rule="evenodd" d="M0.158983 178.5L296.643 181.829L0 185.094L0.158983 178.5Z" fill="#1E68C0"/>
<path fill-rule="evenodd" clip-rule="evenodd" d="M285.05 77.9628L295.906 62.5191C295.906 62.5191 281.699 49.8223 261.686 49.8223C241.676 49.8223 231.924 61.2818 228.805 69.3635C225.953 76.7531 224.268 89.9796 236.559 99.2097C247.552 107.466 257.391 107.809 263.328 109.509C267.92 110.822 278.229 113.37 278.162 120.864C278.088 129.427 264.921 129.892 262.362 129.678C246.519 128.349 236.02 118.117 236.033 118.117C236.045 118.117 223.204 133.359 223.204 133.359C223.204 133.359 239.922 147.489 258.439 148.132C276.954 148.778 288.841 144.16 295.967 132.324C306.616 104.927 284.723 95.3848 284.723 95.3848C284.723 95.3848 280.883 93.0176 269.314 89.6857C257.742 86.3569 246.617 85.3278 248.069 76.1651C249.665 66.0959 263.157 68.2825 267.834 69.6024C276.407 72.0217 285.05 77.9628 285.05 77.9628Z" fill="#1E68C0"/>
<path fill-rule="evenodd" clip-rule="evenodd" d="M50.1727 51.4148L27.2494 51.5006L65.8106 147.755L84.3835 147.648L142.578 0.0674014L119.946 0L75.2973 118.742L50.1727 51.4148Z" fill="#1E68C0"/>
</svg>
