<svg width="114" height="148" viewBox="0 0 114 148" fill="none" xmlns="http://www.w3.org/2000/svg">
<rect x="1.49995" y="40.7134" width="64.9695" height="33.9724" fill="white" stroke="#485F7D" stroke-width="3"/>
<rect x="3.98767" y="20.7932" width="19.6606" height="18.9137" fill="white" stroke="#485F7D" stroke-width="2"/>
<rect x="10.3364" y="1" width="6.96301" height="18.9137" fill="white" stroke="#485F7D" stroke-width="2"/>
<rect x="49.923" y="1" width="6.96301" height="18.9137" fill="white" stroke="#485F7D" stroke-width="2"/>
<rect x="43.5743" y="20.7932" width="19.6606" height="18.9137" fill="white" stroke="#485F7D" stroke-width="2"/>
<rect x="10.4568" y="47.0557" width="5.97534" height="8.96301" fill="#485F7D"/>
<rect x="21.6605" y="47.0557" width="5.97534" height="8.96301" fill="#485F7D"/>
<rect x="32.8643" y="47.0557" width="5.97534" height="8.96301" fill="#485F7D"/>
<rect x="42.9477" y="47.0557" width="5.97534" height="8.96301" fill="#485F7D"/>
<rect x="30.6236" y="64.9817" width="10.4568" height="11.2038" fill="#485F7D"/>
<rect x="53.0311" y="47.0557" width="5.97534" height="8.96301" fill="#485F7D"/>
<path d="M89.7212 72.8703L89.8125 72.8731L89.9034 72.8647C92.1952 72.6546 94.5693 72.934 96.8801 73.7747C105.324 76.8467 109.612 85.2123 106.591 93.5159C105.583 96.2876 104.366 98.3007 102.68 99.9474C100.98 101.608 98.7194 102.976 95.4973 104.333L95.4035 104.373L95.3158 104.424L63.8043 123.059L63.737 123.099L63.6741 123.145C62.0657 124.339 60.3386 125.359 58.5247 126.19C56.5294 127.105 54.4295 127.792 52.2676 128.231C47.2773 129.245 41.9544 128.939 36.8148 127.069C21.9626 121.666 14.3027 105.246 19.7061 90.3935C23.8827 78.9132 34.6435 71.7271 46.1778 71.5553L46.5508 71.5666L89.7212 72.8703Z" fill="white" stroke="#485F7D" stroke-width="3"/>
<mask id="path-13-inside-1_154_176" fill="white">
<path fill-rule="evenodd" clip-rule="evenodd" d="M61.1983 80.5785C61.3517 75.4872 54.9219 73.148 51.7679 77.1476C49.7692 79.6824 45.9846 79.8482 43.7719 77.4979C40.2803 73.7893 34.0796 76.6818 34.6776 81.7402C35.0566 84.9459 32.4978 87.7392 29.2712 87.6419C24.1799 87.4885 21.8407 93.9184 25.8404 97.0723C28.3751 99.0711 28.5409 102.856 26.1906 105.068C22.4821 108.56 25.3746 114.761 30.433 114.163C33.6387 113.784 36.4319 116.342 36.3347 119.569C36.1813 124.66 42.6111 127 45.7651 123C47.7639 120.465 51.5484 120.299 53.7611 122.65C57.2527 126.358 63.4534 123.466 62.8554 118.407C62.4764 115.202 65.0352 112.408 68.2618 112.506C73.3531 112.659 75.6923 106.229 71.6926 103.075C69.1579 101.076 68.9921 97.2919 71.3424 95.0791C75.0509 91.5875 72.1584 85.3868 67.1 85.9849C63.8944 86.3639 61.1011 83.805 61.1983 80.5785ZM44.6925 111.272C50.8772 113.522 57.7149 110.333 59.9649 104.148C62.215 97.9631 59.0253 91.1254 52.8406 88.8754C46.6559 86.6253 39.8182 89.815 37.5681 95.9997C35.3181 102.184 38.5078 109.022 44.6925 111.272Z"/>
</mask>
<path d="M51.7679 77.1476L50.9827 76.5284L51.7679 77.1476ZM61.1983 80.5785L60.1988 80.5484L61.1983 80.5785ZM43.7719 77.4979L44.5 76.8124L43.7719 77.4979ZM34.6776 81.7402L33.6845 81.8576L34.6776 81.7402ZM29.2712 87.6419L29.2411 88.6415L29.2411 88.6415L29.2712 87.6419ZM25.8404 97.0723L26.4596 96.2871L25.8404 97.0723ZM26.1906 105.068L26.8761 105.796L26.1906 105.068ZM30.433 114.163L30.3156 113.17L30.3156 113.17L30.433 114.163ZM36.3347 119.569L37.3342 119.599L36.3347 119.569ZM45.7651 123L46.5503 123.619L45.7651 123ZM53.7611 122.65L54.4892 121.964L53.7611 122.65ZM62.8554 118.407L63.8485 118.29L62.8554 118.407ZM68.2618 112.506L68.2317 113.505L68.2618 112.506ZM71.6926 103.075L72.3118 102.29L72.3118 102.29L71.6926 103.075ZM71.3424 95.0791L72.0279 95.8072L71.3424 95.0791ZM67.1 85.9849L67.2175 86.9779L67.1 85.9849ZM52.5532 77.7668C55.1102 74.5241 60.3232 76.4206 60.1988 80.5484L62.1979 80.6086C62.3803 74.5537 54.7335 71.7718 50.9827 76.5284L52.5532 77.7668ZM43.0438 78.1834C45.6753 80.9785 50.1761 80.7813 52.5532 77.7668L50.9827 76.5284C49.3622 78.5835 46.2939 78.7179 44.5 76.8124L43.0438 78.1834ZM35.6707 81.6228C35.1859 77.5218 40.213 75.1767 43.0438 78.1834L44.5 76.8124C40.3476 72.402 32.9733 75.8419 33.6845 81.8576L35.6707 81.6228ZM29.2411 88.6415C33.0783 88.7571 36.1214 85.4352 35.6707 81.6228L33.6845 81.8576C33.9918 84.4566 31.9173 86.7212 29.3014 86.6424L29.2411 88.6415ZM26.4596 96.2871C23.2169 93.7301 25.1134 88.5171 29.2411 88.6415L29.3014 86.6424C23.2465 86.4599 20.4645 94.1067 25.2212 97.8576L26.4596 96.2871ZM26.8761 105.796C29.6712 103.165 29.4741 98.6642 26.4596 96.2871L25.2212 97.8576C27.2762 99.4781 27.4106 102.546 25.5052 104.34L26.8761 105.796ZM30.3156 113.17C26.2145 113.654 23.8694 108.627 26.8761 105.796L25.5052 104.34C21.0947 108.493 24.5347 115.867 30.5504 115.156L30.3156 113.17ZM37.3342 119.599C37.4499 115.762 34.128 112.719 30.3156 113.17L30.5504 115.156C33.1494 114.848 35.414 116.923 35.3352 119.539L37.3342 119.599ZM44.9799 122.381C42.4228 125.623 37.2099 123.727 37.3342 119.599L35.3352 119.539C35.1527 125.594 42.7995 128.376 46.5503 123.619L44.9799 122.381ZM54.4892 121.964C51.8577 119.169 47.3569 119.366 44.9799 122.381L46.5503 123.619C48.1708 121.564 51.2391 121.43 53.033 123.335L54.4892 121.964ZM61.8623 118.525C62.3472 122.626 57.32 124.971 54.4892 121.964L53.033 123.335C57.1855 127.746 64.5597 124.306 63.8485 118.29L61.8623 118.525ZM68.2919 111.506C64.4547 111.39 61.4116 114.712 61.8623 118.525L63.8485 118.29C63.5412 115.691 65.6158 113.426 68.2317 113.505L68.2919 111.506ZM71.0734 103.86C74.3161 106.417 72.4196 111.63 68.2919 111.506L68.2317 113.505C74.2865 113.688 77.0685 106.041 72.3118 102.29L71.0734 103.86ZM70.6569 94.351C67.8618 96.9826 68.059 101.483 71.0734 103.86L72.3118 102.29C70.2568 100.669 70.1224 97.6012 72.0279 95.8072L70.6569 94.351ZM67.2175 86.9779C71.3185 86.4931 73.6636 91.5203 70.6569 94.351L72.0279 95.8072C76.4383 91.6548 72.9983 84.2806 66.9826 84.9918L67.2175 86.9779ZM60.1988 80.5484C60.0831 84.3856 63.4051 87.4287 67.2175 86.9779L66.9826 84.9918C64.3837 85.299 62.119 83.2245 62.1979 80.6086L60.1988 80.5484ZM59.0252 103.806C56.964 109.472 50.7001 112.394 45.0344 110.332L44.3506 112.212C51.0543 114.651 58.4658 111.193 60.9047 104.49L59.0252 103.806ZM52.4987 89.8151C58.1644 91.8764 61.0864 98.1403 59.0252 103.806L60.9047 104.49C63.3435 97.786 59.8862 90.3745 53.1825 87.9356L52.4987 89.8151ZM38.5079 96.3416C40.5691 90.6759 46.833 87.7539 52.4987 89.8151L53.1825 87.9356C46.4788 85.4968 39.0673 88.9541 36.6284 95.6578L38.5079 96.3416ZM45.0344 110.332C39.3687 108.271 36.4467 102.007 38.5079 96.3416L36.6284 95.6578C34.1895 102.362 37.6469 109.773 44.3506 112.212L45.0344 110.332Z" fill="#485F7D" mask="url(#path-13-inside-1_154_176)"/>
<mask id="path-15-inside-2_154_176" fill="white">
<path fill-rule="evenodd" clip-rule="evenodd" d="M94.5022 78.7049C94.5892 75.8201 90.946 74.4947 89.1589 76.761C88.0264 78.1972 85.8821 78.2911 84.6284 76.9594C82.65 74.8581 79.1367 76.497 79.4755 79.3631C79.6903 81.1795 78.2404 82.7621 76.4123 82.7071C73.5275 82.6201 72.2021 86.2633 74.4683 88.0503C75.9045 89.1828 75.9985 91.3272 74.6668 92.5809C72.5655 94.5593 74.2044 98.0726 77.0705 97.7337C78.8869 97.519 80.4695 98.9688 80.4144 100.797C80.3275 103.682 83.9707 105.007 85.7577 102.741C86.8902 101.305 89.0345 101.211 90.2883 102.542C92.2666 104.644 95.78 103.005 95.4411 100.139C95.2264 98.3224 96.6762 96.7398 98.5044 96.7948C101.389 96.8818 102.715 93.2386 100.448 91.4516C99.0121 90.319 98.9182 88.1747 100.25 86.921C102.351 84.9426 100.712 81.4293 97.8462 81.7682C96.0298 81.9829 94.4471 80.5331 94.5022 78.7049ZM85.1499 96.096C88.6542 97.3709 92.5284 95.5636 93.8033 92.0593C95.0782 88.5551 93.2709 84.6808 89.7667 83.4059C86.2624 82.131 82.3881 83.9383 81.1133 87.4426C79.8384 90.9468 81.6456 94.8211 85.1499 96.096Z"/>
</mask>
<path d="M89.1589 76.761L88.3737 76.1418L88.3737 76.1418L89.1589 76.761ZM94.5022 78.7049L95.5018 78.735L95.5018 78.735L94.5022 78.7049ZM84.6284 76.9594L85.3565 76.2739L85.3565 76.2739L84.6284 76.9594ZM79.4755 79.3631L78.4825 79.4805L79.4755 79.3631ZM76.4123 82.7071L76.4424 81.7075L76.4424 81.7075L76.4123 82.7071ZM74.4683 88.0503L75.0875 87.2651L74.4683 88.0503ZM74.6668 92.5809L75.3523 93.309L74.6668 92.5809ZM77.0705 97.7337L76.9531 96.7407L77.0705 97.7337ZM80.4144 100.797L79.4149 100.767L79.4149 100.767L80.4144 100.797ZM85.7577 102.741L86.543 103.36L85.7577 102.741ZM90.2883 102.542L91.0164 101.857L91.0164 101.857L90.2883 102.542ZM95.4411 100.139L96.4342 100.021L96.4342 100.021L95.4411 100.139ZM98.5044 96.7948L98.5345 95.7953L98.5044 96.7948ZM100.448 91.4516L101.068 90.6663L100.448 91.4516ZM100.25 86.921L100.935 87.6491L100.935 87.6491L100.25 86.921ZM97.8462 81.7682L97.7288 80.7751L97.8462 81.7682ZM89.9442 77.3801C91.1343 75.8709 93.5606 76.7536 93.5027 78.6748L95.5018 78.735C95.6177 74.8867 90.7577 73.1186 88.3737 76.1418L89.9442 77.3801ZM83.9003 77.6449C85.5728 79.4214 88.4334 79.2961 89.9442 77.3801L88.3737 76.1418C87.6195 77.0982 86.1914 77.1608 85.3565 76.2739L83.9003 77.6449ZM80.4686 79.2457C80.243 77.337 82.5828 76.2455 83.9003 77.6449L85.3565 76.2739C82.7173 73.4708 78.0304 75.6571 78.4825 79.4805L80.4686 79.2457ZM76.3821 83.7066C78.821 83.7801 80.7551 81.6688 80.4686 79.2457L78.4825 79.4805C78.6255 80.6902 77.6599 81.7442 76.4424 81.7075L76.3821 83.7066ZM75.0875 87.2651C73.5783 86.075 74.461 83.6487 76.3821 83.7066L76.4424 81.7075C72.5941 81.5915 70.8259 86.4516 73.8491 88.8356L75.0875 87.2651ZM75.3523 93.309C77.1288 91.6365 77.0035 88.7759 75.0875 87.2651L73.8491 88.8356C74.8056 89.5898 74.8682 91.0179 73.9813 91.8528L75.3523 93.309ZM76.9531 96.7407C75.0444 96.9663 73.9529 94.6265 75.3523 93.309L73.9813 91.8528C71.1781 94.492 73.3645 99.1789 77.1879 98.7268L76.9531 96.7407ZM81.414 100.827C81.4875 98.3883 79.3762 96.4542 76.9531 96.7407L77.1879 98.7268C78.3976 98.5838 79.4516 99.5494 79.4149 100.767L81.414 100.827ZM84.9725 102.122C83.7824 103.631 81.3561 102.748 81.414 100.827L79.4149 100.767C79.2989 104.615 84.159 106.383 86.543 103.36L84.9725 102.122ZM91.0164 101.857C89.3438 100.081 86.4833 100.206 84.9725 102.122L86.543 103.36C87.2972 102.404 88.7252 102.341 89.5602 103.228L91.0164 101.857ZM94.448 100.256C94.6737 102.165 92.3339 103.256 91.0164 101.857L89.5602 103.228C92.1994 106.031 96.8862 103.845 96.4342 100.021L94.448 100.256ZM98.5345 95.7953C96.0957 95.7218 94.1616 97.8331 94.448 100.256L96.4342 100.021C96.2912 98.8117 97.2568 97.7577 98.4743 97.7944L98.5345 95.7953ZM99.8291 92.2368C101.338 93.4269 100.456 95.8532 98.5345 95.7953L98.4743 97.7944C102.323 97.9104 104.091 93.0503 101.068 90.6663L99.8291 92.2368ZM99.5644 86.1929C97.7879 87.8654 97.9132 90.726 99.8291 92.2368L101.068 90.6663C100.111 89.9121 100.048 88.484 100.935 87.6491L99.5644 86.1929ZM97.9636 82.7612C99.8723 82.5356 100.964 84.8754 99.5644 86.1929L100.935 87.6491C103.739 85.0099 101.552 80.323 97.7288 80.7751L97.9636 82.7612ZM93.5027 78.6748C93.4292 81.1136 95.5405 83.0477 97.9636 82.7612L97.7288 80.7751C96.5191 80.9181 95.4651 79.9525 95.5018 78.735L93.5027 78.6748ZM92.8636 91.7174C91.7775 94.7027 88.4771 96.2423 85.4918 95.1562L84.808 97.0357C88.8313 98.4994 93.2794 96.4245 94.7431 92.4012L92.8636 91.7174ZM89.4248 84.3457C92.41 85.4317 93.9496 88.7322 92.8636 91.7174L94.7431 92.4012C96.2068 88.3779 94.1318 83.9299 90.1085 82.4662L89.4248 84.3457ZM82.053 87.7845C83.1391 84.7992 86.4395 83.2596 89.4248 84.3457L90.1085 82.4662C86.0853 81.0025 81.6372 83.0774 80.1735 87.1007L82.053 87.7845ZM85.4918 95.1562C82.5065 94.0702 80.9669 90.7697 82.053 87.7845L80.1735 87.1007C78.7098 91.124 80.7848 95.572 84.808 97.0357L85.4918 95.1562Z" fill="#485F7D" mask="url(#path-15-inside-2_154_176)"/>
<rect x="71.6718" y="58.3605" width="8.82177" height="10.9789" transform="rotate(0.857831 71.6718 58.3605)" stroke="#485F7D"/>
<rect x="83.6718" y="58.5074" width="8.82177" height="10.9789" transform="rotate(0.857831 83.6718 58.5074)" stroke="#485F7D"/>
<rect x="98.9814" y="59.6288" width="8.82177" height="10.9789" transform="rotate(17.7802 98.9814 59.6288)" stroke="#485F7D"/>
</svg>
