<svg width="1103" height="521" viewBox="0 0 1103 521" fill="none" xmlns="http://www.w3.org/2000/svg">
<path d="M365.434 0.5H365.11L364.977 0.795297L214.081 337.063L101.03 91.176L100.896 90.8849H100.576H2H1.185L1.55427 91.6114L213.641 508.9L214.104 509.81L214.539 508.887L454.094 1.21337L454.43 0.5H453.641H365.434ZM453.141 168.285V168.785H453.641H565.458V508.674V509.174H565.958H651.39H651.89V508.674V168.785H764.304H764.804V168.285V91.3849V90.8849H764.304H453.641H453.141V91.3849V168.285ZM849.723 368.338L849.452 367.857L849 368.175L788.062 411.096L787.719 411.338L787.898 411.718C797.084 431.246 809.863 449.374 826.228 466.102C842.603 482.839 861.772 496.188 883.732 506.148L883.742 506.153C906.112 515.719 930.076 520.5 955.63 520.5C974.798 520.5 992.973 517.512 1010.15 511.533C1027.73 505.952 1043.51 497.779 1057.5 487.013L1057.5 487.008C1071.5 475.835 1082.5 462.266 1090.5 446.304C1098.5 430.329 1102.5 412.168 1102.5 391.833C1102.5 373.898 1099.5 358.131 1093.5 344.545C1087.9 330.579 1079.9 318.6 1069.49 308.616C1059.5 298.251 1048.12 289.481 1035.33 282.306C1022.96 275.138 1009.99 269.165 996.421 264.386L996.416 264.384C975.321 257.236 957.819 250.289 943.904 243.546C929.998 236.409 919.705 229.092 912.992 221.608C906.3 213.75 902.959 204.725 902.959 194.515C902.959 184.337 907.071 175.526 915.34 168.06L915.349 168.052C923.586 160.224 935.986 156.267 952.643 156.267C965.319 156.267 976.589 158.835 986.466 163.96L986.473 163.964L986.48 163.967C996.378 168.708 1005.09 175.225 1012.61 183.524L1012.62 183.534L1012.63 183.542C1020.56 191.458 1027.31 200.363 1032.86 210.259L1033.1 210.692L1033.54 210.452L1100.45 173.492L1100.87 173.262L1100.66 172.835C1093.46 158.078 1083.28 143.929 1070.1 130.386C1057.31 116.424 1041.12 105.062 1021.56 96.2965C1002.36 87.1181 979.382 82.5391 952.643 82.5391C926.693 82.5391 903.124 87.3195 881.944 96.889C861.156 106.064 844.554 119.434 832.152 136.998L832.15 137C820.135 154.185 814.137 174.755 814.137 198.688C814.137 218.622 817.933 235.795 825.546 250.188L825.549 250.194C833.144 264.154 842.741 276.125 854.339 286.101L854.347 286.108C865.925 295.669 878.104 303.638 890.885 310.015L890.893 310.019L890.901 310.023C904.05 315.986 915.612 320.76 925.584 324.343C944.292 331.492 960.007 338.241 972.732 344.59L972.741 344.594L972.749 344.598C985.849 350.539 995.532 357.453 1001.84 365.32L1001.84 365.326L1001.85 365.331C1008.52 373.168 1011.89 383.574 1011.89 396.602C1011.89 411.569 1006.57 423.342 995.94 431.981C985.295 440.636 971.475 444.984 954.435 444.984C939.773 444.984 926.109 441.822 913.436 435.499C900.751 429.17 889.05 420.267 878.333 408.783C868.007 397.289 858.469 383.809 849.723 368.338Z" stroke="#ECECEC"/>
</svg>
