<svg width="68" height="60" viewBox="0 0 68 60" fill="none" xmlns="http://www.w3.org/2000/svg">
<path d="M37.8971 3.75L65.6099 51.75C67.3419 54.75 65.1769 58.5 61.7128 58.5H6.28715C2.82305 58.5 0.657985 54.75 2.39003 51.75L30.1028 3.75C31.8349 0.75 36.165 0.75 37.8971 3.75Z" fill="#485F7D" stroke="#485F7D" stroke-width="3"/>
<path d="M34 43.9991C32.726 43.9991 32.089 43.225 32.089 41.6768L31.7517 13.0157C31.7517 12.2417 31.9578 11.6509 32.37 11.2435C32.7822 10.7954 33.3255 10.5713 34 10.5713C34.6745 10.5713 35.2178 10.7954 35.63 11.2435C36.0796 11.6917 36.3044 12.2824 36.3044 13.0157L35.911 41.6768C35.911 43.225 35.274 43.9991 34 43.9991ZM34 54.5713C32.9883 54.5713 32.1639 54.2657 31.5269 53.6546C30.8899 53.0028 30.5714 52.188 30.5714 51.2102C30.5714 50.1917 30.8899 49.3565 31.5269 48.7046C32.2014 48.012 33.0257 47.6657 34 47.6657C34.9742 47.6657 35.7798 48.012 36.4168 48.7046C37.0913 49.3565 37.4286 50.1917 37.4286 51.2102C37.4286 52.188 37.1101 53.0028 36.4731 53.6546C35.836 54.2657 35.0117 54.5713 34 54.5713Z" fill="white"/>
</svg>
