<svg width="45" height="45" viewBox="0 0 45 45" fill="none" xmlns="http://www.w3.org/2000/svg">
<path fill-rule="evenodd" clip-rule="evenodd" d="M44.5341 22.4849C44.5341 34.9029 34.5645 44.9699 22.2666 44.9699C9.96865 44.9699 0 34.9029 0 22.4849C0 10.0667 9.96865 0 22.2666 0C34.5645 0 44.5341 10.0667 44.5341 22.4849Z" fill="#485F7D"/>
<path fill-rule="evenodd" clip-rule="evenodd" d="M13.4001 33.5321L15.4026 33.1711L16.6177 32.9541C18.334 33.8931 20.1938 34.3991 22.2666 34.3991C28.774 34.3991 34.0653 29.0551 34.0653 22.4851C34.0653 15.9144 28.774 10.5713 22.2666 10.5713C15.7601 10.5713 10.4688 15.9144 10.4688 22.4851C10.4688 24.8681 11.1838 27.0341 12.3276 28.9111L12.185 29.9941L11.8988 32.1601L11.6839 33.8211L13.4001 33.5321ZM22.2666 8.26074C30.0614 8.26074 36.354 14.6147 36.354 22.4851C36.354 30.3551 30.0614 36.7091 22.2666 36.7091C20.1215 36.7091 18.1201 36.2761 16.3325 35.4091L8.82383 36.7091L9.82505 29.2001L9.75375 29.0551C8.75253 27.1061 8.18011 24.8681 8.18011 22.4851C8.18011 14.6147 14.4727 8.26074 22.2666 8.26074ZM17.2614 15.9866C18.0478 15.4812 18.5489 15.8422 18.8351 16.6364L19.5501 18.5137C19.5501 18.5137 20.0502 19.5246 18.7628 20.5354C18.5489 20.6798 18.5489 20.6798 18.6202 21.0411C18.9064 21.9071 20.0502 24.5071 23.6976 26.5281C24.0551 26.7451 24.1264 26.7451 24.4839 26.4561C24.7701 26.1671 25.1276 25.8061 25.4128 25.5171C26.0566 24.9401 26.4141 24.7231 26.9865 25.1561C27.4153 25.4451 27.8441 25.8061 28.2739 26.0951C28.7027 26.4561 29.4177 26.8891 28.7027 27.7561L28.059 28.5501C27.1291 29.7051 26.3428 29.7771 25.1276 29.4891C20.479 28.2611 17.0475 24.9401 15.5452 20.2466C15.0451 18.4415 15.7601 16.9252 17.2614 15.9866Z" fill="white"/>
</svg>
